<?xml version="1.0" encoding="UTF-8"?>
<svg xmlns="http://www.w3.org/2000/svg" xmlns:xlink="http://www.w3.org/1999/xlink" viewBox="0 0 24 24" width="24px" height="24px">
<g id="surface181171149">
<path style=" stroke:none;fill-rule:nonzero;fill:rgb(100%,100%,100%);fill-opacity:1;" d="M 21.914062 10.753906 L 21.695312 9 L 17.304688 9 L 20.277344 6.027344 L 18.730469 4.613281 C 16.878906 2.929688 14.488281 2 12 2 C 6.484375 2 2 6.484375 2 12 C 2 17.515625 6.484375 22 12 22 C 17.515625 22 22 17.515625 22 12 C 22 11.609375 21.972656 11.214844 21.914062 10.753906 Z M 12 20 C 7.582031 20 4 16.417969 4 12 C 4 7.582031 7.582031 4 12 4 C 14.074219 4 15.960938 4.796875 17.382812 6.09375 L 15.246094 8.226562 C 14.371094 7.472656 13.246094 7 12 7 C 9.238281 7 7 9.238281 7 12 C 7 14.761719 9.238281 17 12 17 C 14.050781 17 15.804688 15.765625 16.578125 14 L 13 14 L 13 11 L 19.929688 11 C 19.972656 11.328125 20 11.660156 20 12 C 20 16.417969 16.417969 20 12 20 Z M 11 9.171875 L 11 14.828125 C 9.835938 14.414062 9 13.304688 9 12 C 9 10.695312 9.835938 9.585938 11 9.171875 Z M 11 9.171875 "/>
</g>
</svg>
